<svg xmlns="http://www.w3.org/2000/svg"  viewBox="0 15.699999809265137 28.5 29.299999237060547" data-asc="0.9" width="28.5" height="29.299999237060547">
	<defs/>


	<g >
		<g transform="translate(0, 0)">
			<path d="M0 35.60L0 25.10L2 25.10Q2 25.10 2 25.89Q2 26.68 2 27.72Q2 28.77 2 29.56Q2 30.35 2 30.35Q2 30.35 2 30.35Q2 30.35 2 30.35Q2 30.35 2 30.35Q2 30.35 2 30.35Q2 30.35 2 31.14Q2 31.92 2 32.98Q2 34.02 2 34.81Q2 35.60 2 35.60L0 35.60M28.50 31.05Q28.50 31.05 28.50 32.06Q28.50 33.08 28.50 34.66Q28.50 36.25 28.50 38.02Q28.50 39.80 28.50 41.39Q28.50 42.98 28.50 43.99Q28.50 45 28.50 45Q28.50 45 28.50 45Q28.50 45 28.50 45Q28.50 45 28.50 45Q28.50 45 28.50 45Q28.50 45 27.49 45Q26.48 45 24.88 45Q23.28 45 21.46 45Q19.65 45 17.99 45Q16.33 45 15.20 45Q14.08 45 13.90 45Q13.90 45 13.90 45Q13.90 45 13.90 45Q13.90 45 13.90 45Q13.90 45 13.90 45Q13.90 45 13.90 45Q13.90 44.50 13.90 43.99Q13.90 43.48 13.90 43Q13.90 43 14.76 43Q15.63 43 16.90 43Q18.18 43 19.45 43Q20.73 43 21.59 43Q22.45 43 22.45 43Q22.45 43 22.45 43Q22.45 43 22.45 43Q22.45 43 22.45 43Q22.53 43 22.95 42.63Q23.38 42.25 23.98 41.67Q24.58 41.10 25.15 40.51Q25.73 39.92 26.11 39.50Q26.50 39.08 26.50 39L26.50 31.05L28.50 31.05M28.50 29.65L26.50 29.65L26.50 21.70Q26.50 21.63 26.11 21.20Q25.73 20.77 25.15 20.19Q24.58 19.60 23.98 19.02Q23.38 18.45 22.95 18.07Q22.53 17.70 22.45 17.70Q22.45 17.70 22.45 17.70Q22.45 17.70 22.45 17.70Q22.45 17.70 22.45 17.70Q22.45 17.70 21.59 17.70Q20.73 17.70 19.45 17.70Q18.18 17.70 16.90 17.70Q15.63 17.70 14.76 17.70Q13.90 17.70 13.90 17.70Q13.90 17.20 13.90 16.69Q13.90 16.17 13.90 15.70Q13.90 15.70 13.90 15.70Q13.90 15.70 13.90 15.70Q13.90 15.70 13.90 15.70Q13.90 15.70 13.90 15.70Q13.90 15.70 13.90 15.70Q14.08 15.70 15.20 15.70Q16.33 15.70 17.99 15.70Q19.65 15.70 21.46 15.70Q23.28 15.70 24.88 15.70Q26.48 15.70 27.49 15.70Q28.50 15.70 28.50 15.70Q28.50 15.70 28.50 15.70Q28.50 15.70 28.50 15.70Q28.50 15.70 28.50 15.70Q28.50 15.70 28.50 15.70Q28.50 15.70 28.50 16.71Q28.50 17.72 28.50 19.31Q28.50 20.90 28.50 22.67Q28.50 24.45 28.50 26.04Q28.50 27.63 28.50 28.64Q28.50 29.65 28.50 29.65M23 30.85Q23 30.85 23 30.85Q23 30.85 23 30.85Q23 30.85 23.53 30.42Q24.05 30 24.75 29.42Q25.45 28.85 25.98 28.43Q26.50 28 26.50 28L26.50 25.50L27.45 25.50L28.50 25.50Q28.50 25.50 28.50 26.57Q28.50 27.65 28.50 29.25Q28.50 30.85 28.50 32.45Q28.50 34.05 28.50 35.13Q28.50 36.20 28.50 36.20L27.45 36.20L26.50 36.20L26.50 33.70Q26.50 33.70 25.98 33.27Q25.45 32.85 24.75 32.27Q24.05 31.70 23.53 31.27Q23 30.85 23 30.85Q23 30.85 23 30.85Q23 30.85 23 30.85M0 31.05L2 31.05Q2 31.05 2 31.91Q2 32.77 2 34.14Q2 35.50 2 37.02Q2 38.55 2 39.91Q2 41.27 2 42.14Q2 43 2 43Q2 43 2 43Q2 43 2 43Q2 43 2 43Q2 43 2 43Q2 43 2 43Q2 43 2 43Q2 43 2 43Q2 43 2 43Q2 43 2 43Q2 43 2 43Q2 43 2 43Q2 43 2 43Q2 43 2 43Q2 43 2.91 43Q3.83 43 5.26 43Q6.70 43 8.30 43Q9.90 43 11.34 43Q12.78 43 13.69 43Q14.60 43 14.60 43Q14.60 43.48 14.60 43.99Q14.60 44.50 14.60 45Q14.60 45 14.60 45Q14.60 45 14.60 45Q14.60 45 14.60 45Q14.60 45 14.60 45Q14.60 45 14.60 45Q14.60 45 13.55 45Q12.50 45 10.84 45Q9.18 45 7.30 45Q5.42 45 3.76 45Q2.10 45 1.05 45Q0 45 0 45Q0 45 0 45Q0 45 0 45Q0 45 0 45Q0 45 0 45Q0 45 0 43.99Q0 42.98 0 41.39Q0 39.80 0 38.02Q0 36.25 0 34.66Q0 33.08 0 32.06Q0 31.05 0 31.05M0 29.65Q0 29.65 0 28.64Q0 27.63 0 26.04Q0 24.45 0 22.67Q0 20.90 0 19.31Q0 17.72 0 16.71Q0 15.70 0 15.70Q0 15.70 0 15.70Q0 15.70 0 15.70Q0 15.70 0 15.70Q0 15.70 0 15.70Q0 15.70 1.05 15.70Q2.10 15.70 3.76 15.70Q5.42 15.70 7.30 15.70Q9.18 15.70 10.84 15.70Q12.50 15.70 13.55 15.70Q14.60 15.70 14.60 15.70Q14.60 15.70 14.60 15.70Q14.60 15.70 14.60 15.70Q14.60 15.70 14.60 15.70Q14.60 15.70 14.60 15.70Q14.60 15.70 14.60 15.70Q14.60 16.17 14.60 16.69Q14.60 17.20 14.60 17.70Q14.60 17.70 13.69 17.70Q12.78 17.70 11.34 17.70Q9.90 17.70 8.30 17.70Q6.70 17.70 5.26 17.70Q3.83 17.70 2.91 17.70Q2 17.70 2 17.70Q2 17.70 2 17.70Q2 17.70 2 17.70Q2 17.70 2 17.70Q2 17.70 2 17.70Q2 17.70 2 17.70Q2 17.70 2 17.70Q2 17.70 2 17.70Q2 17.70 2 17.70Q2 17.70 2 17.70Q2 17.70 2 17.70Q2 17.70 2 17.70Q2 17.70 2 17.70Q2 17.70 2 17.70Q2 17.70 2 18.56Q2 19.42 2 20.79Q2 22.15 2 23.67Q2 25.20 2 26.56Q2 27.93 2 28.79Q2 29.65 2 29.65L0 29.65M17.50 25.30Q17.50 25.30 17.50 25.30Q17.50 25.30 17.50 25.30Q17.50 25.30 17.50 25.30Q17.50 25.30 17.50 25.30Q17.50 25.30 17.50 25.30Q17.50 25.30 17.50 25.30Q17.50 25.30 17.50 25.30Q17.65 25.30 17.68 25.32Q17.70 25.35 17.70 25.50Q17.70 25.77 17.70 26.04Q17.70 26.30 17.70 26.56Q17.70 26.82 17.70 27.10Q17.70 27.25 17.68 27.27Q17.65 27.30 17.50 27.30Q17.50 27.30 17.50 27.30Q17.50 27.30 17.50 27.30Q17.50 27.30 17.50 27.30Q17.50 27.30 17.50 27.30Q17.50 27.30 17.50 27.30Q17.50 27.30 17.50 27.30Q17.50 27.30 17.50 27.30Q17.50 27.30 16.56 27.30Q15.63 27.30 14.40 27.30Q13.18 27.30 12.24 27.30Q11.30 27.30 11.30 27.30Q11.30 27.30 11.30 27.30Q11.30 27.30 11.30 27.30Q11.15 27.30 11.13 27.27Q11.10 27.25 11.10 27.10Q11.10 26.82 11.10 26.56Q11.10 26.30 11.10 26.04Q11.10 25.77 11.10 25.50Q11.10 25.35 11.13 25.32Q11.15 25.30 11.30 25.30Q11.30 25.30 11.30 25.30Q11.30 25.30 11.30 25.30Q11.30 25.30 12.24 25.30Q13.18 25.30 14.40 25.30Q15.63 25.30 16.56 25.30Q17.50 25.30 17.50 25.30M17.50 35.40Q17.50 35.40 16.56 35.40Q15.63 35.40 14.40 35.40Q13.18 35.40 12.24 35.40Q11.30 35.40 11.30 35.40Q11.30 35.40 11.30 35.40Q11.30 35.40 11.30 35.40Q11.15 35.40 11.13 35.38Q11.10 35.35 11.10 35.20Q11.10 34.92 11.10 34.66Q11.10 34.40 11.10 34.14Q11.10 33.88 11.10 33.60Q11.10 33.45 11.13 33.42Q11.15 33.40 11.30 33.40Q11.30 33.40 11.30 33.40Q11.30 33.40 11.30 33.40Q11.30 33.40 12.24 33.40Q13.18 33.40 14.40 33.40Q15.63 33.40 16.56 33.40Q17.50 33.40 17.50 33.40Q17.50 33.40 17.50 33.40Q17.50 33.40 17.50 33.40Q17.50 33.40 17.50 33.40Q17.50 33.40 17.50 33.40Q17.50 33.40 17.50 33.40Q17.50 33.40 17.50 33.40Q17.50 33.40 17.50 33.40Q17.65 33.40 17.68 33.42Q17.70 33.45 17.70 33.60Q17.70 33.88 17.70 34.14Q17.70 34.40 17.70 34.66Q17.70 34.92 17.70 35.20Q17.70 35.35 17.68 35.38Q17.65 35.40 17.50 35.40Q17.50 35.40 17.50 35.40Q17.50 35.40 17.50 35.40Q17.50 35.40 17.50 35.40Q17.50 35.40 17.50 35.40Q17.50 35.40 17.50 35.40Q17.50 35.40 17.50 35.40Q17.50 35.40 17.50 35.40Z"/>
		</g>
	</g>

  <style>
    /* If this SVG is used as a file (e.g. <img>), declare both schemes here */
    :root { color-scheme: light dark; }

    /* Choose black in light mode, white in dark mode */
    * { fill: light-dark(#000, #fff); }
  </style>
</svg>
