<svg xmlns="http://www.w3.org/2000/svg" 

	 viewBox="0 15.699999809265137 126.55000305175781 29.299999237060547" 
	 data-asc="0.9" width="126.55000305175781" height="29.299999237060547">
	<defs/>
	<g>
		<g transform="translate(0, 0)">
			<path d="M0 35.60L0 25.10L2 25.10Q2 25.10 2 25.89Q2 26.68 2 27.72Q2 28.77 2 29.56Q2 30.35 2 30.35Q2 30.35 2 30.35Q2 30.35 2 30.35Q2 30.35 2 30.35Q2 30.35 2 30.35Q2 30.35 2 31.14Q2 31.92 2 32.98Q2 34.02 2 34.81Q2 35.60 2 35.60L0 35.60M28.50 31.05Q28.50 31.05 28.50 32.06Q28.50 33.08 28.50 34.66Q28.50 36.25 28.50 38.02Q28.50 39.80 28.50 41.39Q28.50 42.98 28.50 43.99Q28.50 45 28.50 45Q28.50 45 28.50 45Q28.50 45 28.50 45Q28.50 45 28.50 45Q28.50 45 28.50 45Q28.50 45 27.49 45Q26.48 45 24.88 45Q23.28 45 21.46 45Q19.65 45 17.99 45Q16.33 45 15.20 45Q14.08 45 13.90 45Q13.90 45 13.90 45Q13.90 45 13.90 45Q13.90 45 13.90 45Q13.90 45 13.90 45Q13.90 45 13.90 45Q13.90 44.50 13.90 43.99Q13.90 43.48 13.90 43Q13.90 43 14.76 43Q15.63 43 16.90 43Q18.18 43 19.45 43Q20.73 43 21.59 43Q22.45 43 22.45 43Q22.45 43 22.45 43Q22.45 43 22.45 43Q22.45 43 22.45 43Q22.53 43 22.95 42.63Q23.38 42.25 23.98 41.67Q24.58 41.10 25.15 40.51Q25.73 39.92 26.11 39.50Q26.50 39.08 26.50 39L26.50 31.05L28.50 31.05M28.50 29.65L26.50 29.65L26.50 21.70Q26.50 21.63 26.11 21.20Q25.73 20.77 25.15 20.19Q24.58 19.60 23.98 19.02Q23.38 18.45 22.95 18.07Q22.53 17.70 22.45 17.70Q22.45 17.70 22.45 17.70Q22.45 17.70 22.45 17.70Q22.45 17.70 22.45 17.70Q22.45 17.70 21.59 17.70Q20.73 17.70 19.45 17.70Q18.18 17.70 16.90 17.70Q15.63 17.70 14.76 17.70Q13.90 17.70 13.90 17.70Q13.90 17.20 13.90 16.69Q13.90 16.17 13.90 15.70Q13.90 15.70 13.90 15.70Q13.90 15.70 13.90 15.70Q13.90 15.70 13.90 15.70Q13.90 15.70 13.90 15.70Q13.90 15.70 13.90 15.70Q14.08 15.70 15.20 15.70Q16.33 15.70 17.99 15.70Q19.65 15.70 21.46 15.70Q23.28 15.70 24.88 15.70Q26.48 15.70 27.49 15.70Q28.50 15.70 28.50 15.70Q28.50 15.70 28.50 15.70Q28.50 15.70 28.50 15.70Q28.50 15.70 28.50 15.70Q28.50 15.70 28.50 15.70Q28.50 15.70 28.50 16.71Q28.50 17.72 28.50 19.31Q28.50 20.90 28.50 22.67Q28.50 24.45 28.50 26.04Q28.50 27.63 28.50 28.64Q28.50 29.65 28.50 29.65M23 30.85Q23 30.85 23 30.85Q23 30.85 23 30.85Q23 30.85 23.53 30.42Q24.05 30 24.75 29.42Q25.45 28.85 25.98 28.43Q26.50 28 26.50 28L26.50 25.50L27.45 25.50L28.50 25.50Q28.50 25.50 28.50 26.57Q28.50 27.65 28.50 29.25Q28.50 30.85 28.50 32.45Q28.50 34.05 28.50 35.13Q28.50 36.20 28.50 36.20L27.45 36.20L26.50 36.20L26.50 33.70Q26.50 33.70 25.98 33.27Q25.45 32.85 24.75 32.27Q24.05 31.70 23.53 31.27Q23 30.85 23 30.85Q23 30.85 23 30.85Q23 30.85 23 30.85M0 31.05L2 31.05Q2 31.05 2 31.91Q2 32.77 2 34.14Q2 35.50 2 37.02Q2 38.55 2 39.91Q2 41.27 2 42.14Q2 43 2 43Q2 43 2 43Q2 43 2 43Q2 43 2 43Q2 43 2 43Q2 43 2 43Q2 43 2 43Q2 43 2 43Q2 43 2 43Q2 43 2 43Q2 43 2 43Q2 43 2 43Q2 43 2 43Q2 43 2 43Q2 43 2.91 43Q3.83 43 5.26 43Q6.70 43 8.30 43Q9.90 43 11.34 43Q12.78 43 13.69 43Q14.60 43 14.60 43Q14.60 43.48 14.60 43.99Q14.60 44.50 14.60 45Q14.60 45 14.60 45Q14.60 45 14.60 45Q14.60 45 14.60 45Q14.60 45 14.60 45Q14.60 45 14.60 45Q14.60 45 13.55 45Q12.50 45 10.84 45Q9.18 45 7.30 45Q5.42 45 3.76 45Q2.10 45 1.05 45Q0 45 0 45Q0 45 0 45Q0 45 0 45Q0 45 0 45Q0 45 0 45Q0 45 0 43.99Q0 42.98 0 41.39Q0 39.80 0 38.02Q0 36.25 0 34.66Q0 33.08 0 32.06Q0 31.05 0 31.05M0 29.65Q0 29.65 0 28.64Q0 27.63 0 26.04Q0 24.45 0 22.67Q0 20.90 0 19.31Q0 17.72 0 16.71Q0 15.70 0 15.70Q0 15.70 0 15.70Q0 15.70 0 15.70Q0 15.70 0 15.70Q0 15.70 0 15.70Q0 15.70 1.05 15.70Q2.10 15.70 3.76 15.70Q5.42 15.70 7.30 15.70Q9.18 15.70 10.84 15.70Q12.50 15.70 13.55 15.70Q14.60 15.70 14.60 15.70Q14.60 15.70 14.60 15.70Q14.60 15.70 14.60 15.70Q14.60 15.70 14.60 15.70Q14.60 15.70 14.60 15.70Q14.60 15.70 14.60 15.70Q14.60 16.17 14.60 16.69Q14.60 17.20 14.60 17.70Q14.60 17.70 13.69 17.70Q12.78 17.70 11.34 17.70Q9.90 17.70 8.30 17.70Q6.70 17.70 5.26 17.70Q3.83 17.70 2.91 17.70Q2 17.70 2 17.70Q2 17.70 2 17.70Q2 17.70 2 17.70Q2 17.70 2 17.70Q2 17.70 2 17.70Q2 17.70 2 17.70Q2 17.70 2 17.70Q2 17.70 2 17.70Q2 17.70 2 17.70Q2 17.70 2 17.70Q2 17.70 2 17.70Q2 17.70 2 17.70Q2 17.70 2 17.70Q2 17.70 2 17.70Q2 17.70 2 18.56Q2 19.42 2 20.79Q2 22.15 2 23.67Q2 25.20 2 26.56Q2 27.93 2 28.79Q2 29.65 2 29.65L0 29.65M17.50 25.30Q17.50 25.30 17.50 25.30Q17.50 25.30 17.50 25.30Q17.50 25.30 17.50 25.30Q17.50 25.30 17.50 25.30Q17.50 25.30 17.50 25.30Q17.50 25.30 17.50 25.30Q17.50 25.30 17.50 25.30Q17.65 25.30 17.68 25.32Q17.70 25.35 17.70 25.50Q17.70 25.77 17.70 26.04Q17.70 26.30 17.70 26.56Q17.70 26.82 17.70 27.10Q17.70 27.25 17.68 27.27Q17.65 27.30 17.50 27.30Q17.50 27.30 17.50 27.30Q17.50 27.30 17.50 27.30Q17.50 27.30 17.50 27.30Q17.50 27.30 17.50 27.30Q17.50 27.30 17.50 27.30Q17.50 27.30 17.50 27.30Q17.50 27.30 17.50 27.30Q17.50 27.30 16.56 27.30Q15.63 27.30 14.40 27.30Q13.18 27.30 12.24 27.30Q11.30 27.30 11.30 27.30Q11.30 27.30 11.30 27.30Q11.30 27.30 11.30 27.30Q11.15 27.30 11.13 27.27Q11.10 27.25 11.10 27.10Q11.10 26.82 11.10 26.56Q11.10 26.30 11.10 26.04Q11.10 25.77 11.10 25.50Q11.10 25.35 11.13 25.32Q11.15 25.30 11.30 25.30Q11.30 25.30 11.30 25.30Q11.30 25.30 11.30 25.30Q11.30 25.30 12.24 25.30Q13.18 25.30 14.40 25.30Q15.63 25.30 16.56 25.30Q17.50 25.30 17.50 25.30M17.50 35.40Q17.50 35.40 16.56 35.40Q15.63 35.40 14.40 35.40Q13.18 35.40 12.24 35.40Q11.30 35.40 11.30 35.40Q11.30 35.40 11.30 35.40Q11.30 35.40 11.30 35.40Q11.15 35.40 11.13 35.38Q11.10 35.35 11.10 35.20Q11.10 34.92 11.10 34.66Q11.10 34.40 11.10 34.14Q11.10 33.88 11.10 33.60Q11.10 33.45 11.13 33.42Q11.15 33.40 11.30 33.40Q11.30 33.40 11.30 33.40Q11.30 33.40 11.30 33.40Q11.30 33.40 12.24 33.40Q13.18 33.40 14.40 33.40Q15.63 33.40 16.56 33.40Q17.50 33.40 17.50 33.40Q17.50 33.40 17.50 33.40Q17.50 33.40 17.50 33.40Q17.50 33.40 17.50 33.40Q17.50 33.40 17.50 33.40Q17.50 33.40 17.50 33.40Q17.50 33.40 17.50 33.40Q17.50 33.40 17.50 33.40Q17.65 33.40 17.68 33.42Q17.70 33.45 17.70 33.60Q17.70 33.88 17.70 34.14Q17.70 34.40 17.70 34.66Q17.70 34.92 17.70 35.20Q17.70 35.35 17.68 35.38Q17.65 35.40 17.50 35.40Q17.50 35.40 17.50 35.40Q17.50 35.40 17.50 35.40Q17.50 35.40 17.50 35.40Q17.50 35.40 17.50 35.40Q17.50 35.40 17.50 35.40Q17.50 35.40 17.50 35.40Q17.50 35.40 17.50 35.40ZM26.50 35.60L26.50 25.10L28.50 25.10Q28.50 25.10 28.50 25.89Q28.50 26.68 28.50 27.72Q28.50 28.77 28.50 29.56Q28.50 30.35 28.50 30.35Q28.50 30.35 28.50 30.35Q28.50 30.35 28.50 30.35Q28.50 30.35 28.50 30.35Q28.50 30.35 28.50 30.35Q28.50 30.35 28.50 31.14Q28.50 31.92 28.50 32.98Q28.50 34.02 28.50 34.81Q28.50 35.60 28.50 35.60L26.50 35.60M49.50 31.05Q49.50 31.05 49.50 31.05Q49.50 31.05 49.50 31.05Q49.50 31.05 50.03 30.63Q50.55 30.20 51.25 29.63Q51.95 29.05 52.48 28.63Q53 28.20 53 28.20L53 25.70L53.95 25.70L55 25.70Q55 25.70 55 26.77Q55 27.85 55 29.45Q55 31.05 55 32.65Q55 34.25 55 35.33Q55 36.40 55 36.40L53.95 36.40L53 36.40L53 33.90Q53 33.90 52.48 33.48Q51.95 33.05 51.25 32.48Q50.55 31.90 50.03 31.48Q49.50 31.05 49.50 31.05Q49.50 31.05 49.50 31.05Q49.50 31.05 49.50 31.05M26.50 31.05L28.50 31.05Q28.50 31.05 28.50 31.91Q28.50 32.77 28.50 34.14Q28.50 35.50 28.50 37.02Q28.50 38.55 28.50 39.91Q28.50 41.27 28.50 42.14Q28.50 43 28.50 43Q28.50 43 28.50 43Q28.50 43 28.50 43Q28.50 43 28.50 43Q28.50 43 28.50 43Q28.50 43 28.50 43Q28.50 43 28.50 43Q28.50 43 28.50 43Q28.50 43 28.50 43Q28.50 43 28.50 43Q28.50 43 28.50 43Q28.50 43 28.50 43Q28.50 43 28.50 43Q28.50 43 28.50 43Q28.50 43 29.41 43Q30.32 43 31.76 43Q33.20 43 34.80 43Q36.40 43 37.84 43Q39.27 43 40.19 43Q41.10 43 41.10 43Q41.10 43.48 41.10 43.99Q41.10 44.50 41.10 45Q41.10 45 41.10 45Q41.10 45 41.10 45Q41.10 45 41.10 45Q41.10 45 41.10 45Q41.10 45 41.10 45Q41.10 45 40.05 45Q39 45 37.34 45Q35.67 45 33.80 45Q31.93 45 30.26 45Q28.60 45 27.55 45Q26.50 45 26.50 45Q26.50 45 26.50 45Q26.50 45 26.50 45Q26.50 45 26.50 45Q26.50 45 26.50 45Q26.50 45 26.50 43.99Q26.50 42.98 26.50 41.39Q26.50 39.80 26.50 38.02Q26.50 36.25 26.50 34.66Q26.50 33.08 26.50 32.06Q26.50 31.05 26.50 31.05M26.50 29.65Q26.50 29.65 26.50 28.64Q26.50 27.63 26.50 26.04Q26.50 24.45 26.50 22.67Q26.50 20.90 26.50 19.31Q26.50 17.72 26.50 16.71Q26.50 15.70 26.50 15.70Q26.50 15.70 26.50 15.70Q26.50 15.70 26.50 15.70Q26.50 15.70 26.50 15.70Q26.50 15.70 26.50 15.70Q26.50 15.70 27.55 15.70Q28.60 15.70 30.26 15.70Q31.93 15.70 33.80 15.70Q35.67 15.70 37.34 15.70Q39 15.70 40.05 15.70Q41.10 15.70 41.10 15.70Q41.10 15.70 41.10 15.70Q41.10 15.70 41.10 15.70Q41.10 15.70 41.10 15.70Q41.10 15.70 41.10 15.70Q41.10 15.70 41.10 15.70Q41.10 16.17 41.10 16.69Q41.10 17.20 41.10 17.70Q41.10 17.70 40.19 17.70Q39.27 17.70 37.84 17.70Q36.40 17.70 34.80 17.70Q33.20 17.70 31.76 17.70Q30.32 17.70 29.41 17.70Q28.50 17.70 28.50 17.70Q28.50 17.70 28.50 17.70Q28.50 17.70 28.50 17.70Q28.50 17.70 28.50 17.70Q28.50 17.70 28.50 17.70Q28.50 17.70 28.50 17.70Q28.50 17.70 28.50 17.70Q28.50 17.70 28.50 17.70Q28.50 17.70 28.50 17.70Q28.50 17.70 28.50 17.70Q28.50 17.70 28.50 17.70Q28.50 17.70 28.50 17.70Q28.50 17.70 28.50 17.70Q28.50 17.70 28.50 17.70Q28.50 17.70 28.50 18.56Q28.50 19.42 28.50 20.79Q28.50 22.15 28.50 23.67Q28.50 25.20 28.50 26.56Q28.50 27.93 28.50 28.79Q28.50 29.65 28.50 29.65L26.50 29.65M55 29.65L53 29.65L53 21.70Q53 21.63 52.61 21.20Q52.23 20.77 51.65 20.19Q51.08 19.60 50.48 19.02Q49.88 18.45 49.45 18.07Q49.03 17.70 48.95 17.70Q48.95 17.70 48.95 17.70Q48.95 17.70 48.95 17.70Q48.95 17.70 48.95 17.70Q48.95 17.70 48.09 17.70Q47.23 17.70 45.95 17.70Q44.67 17.70 43.40 17.70Q42.13 17.70 41.26 17.70Q40.40 17.70 40.40 17.70Q40.40 17.20 40.40 16.69Q40.40 16.17 40.40 15.70Q40.40 15.70 40.40 15.70Q40.40 15.70 40.40 15.70Q40.40 15.70 40.40 15.70Q40.40 15.70 40.40 15.70Q40.40 15.70 40.40 15.70Q40.58 15.70 41.70 15.70Q42.83 15.70 44.49 15.70Q46.15 15.70 47.96 15.70Q49.78 15.70 51.38 15.70Q52.98 15.70 53.99 15.70Q55 15.70 55 15.70Q55 15.70 55 15.70Q55 15.70 55 15.70Q55 15.70 55 15.70Q55 15.70 55 15.70Q55 15.70 55 16.71Q55 17.72 55 19.31Q55 20.90 55 22.67Q55 24.45 55 26.04Q55 27.63 55 28.64Q55 29.65 55 29.65M39.75 30.20Q39.75 30.20 39.75 29.26Q39.75 28.32 39.75 27.10Q39.75 25.88 39.75 24.94Q39.75 24 39.75 24Q39.75 24 39.75 24Q39.75 24 39.75 24Q39.75 23.85 39.77 23.82Q39.80 23.80 39.95 23.80Q40.23 23.80 40.49 23.80Q40.75 23.80 41.01 23.80Q41.27 23.80 41.55 23.80Q41.70 23.80 41.73 23.82Q41.75 23.85 41.75 24Q41.75 24 41.75 24Q41.75 24 41.75 24Q41.75 24 41.75 24.94Q41.75 25.88 41.75 27.10Q41.75 28.32 41.75 29.26Q41.75 30.20 41.75 30.20Q41.75 30.20 41.75 30.20Q41.75 30.20 41.75 30.20Q41.75 30.20 41.75 30.20Q41.75 30.20 41.75 30.20Q41.75 30.20 41.75 30.20Q41.75 30.20 41.75 30.20Q41.75 30.20 41.75 30.20Q41.75 30.35 41.73 30.38Q41.70 30.40 41.55 30.40Q41.15 30.40 40.76 30.40Q40.38 30.40 39.95 30.40Q39.80 30.40 39.77 30.38Q39.75 30.35 39.75 30.20Q39.75 30.20 39.75 30.20Q39.75 30.20 39.75 30.20Q39.75 30.20 39.75 30.20Q39.75 30.20 39.75 30.20Q39.75 30.20 39.75 30.20Q39.75 30.20 39.75 30.20Q39.75 30.20 39.75 30.20M39.75 34.35Q39.75 34.35 39.90 34.35Q40.05 34.35 40.27 34.35Q40.50 34.35 40.75 34.35Q41.02 34.35 41.26 34.35Q41.50 34.35 41.65 34.35Q41.80 34.35 41.80 34.35Q41.80 34.75 41.80 35.74Q41.80 36.73 41.80 37.95Q41.80 39.17 41.80 40.34Q41.80 41.50 41.80 42.25Q41.80 43 41.80 43Q41.80 43 41.80 43Q41.80 43 41.80 43Q41.80 43 41.80 43Q41.80 43 42.61 43Q43.42 43 44.70 43Q45.98 43 47.40 43Q48.83 43 50.10 43Q51.38 43 52.19 43Q53 43 53 43Q53 43 53 43Q53 43 53 43Q53 43 53 43Q53 43 53 42.21Q53 41.42 53 40.51Q53 39.60 53 39.25Q53 38.98 53 38.71Q53 38.45 53 38.06Q53 37.67 53 37.08Q53 36.48 53 35.55Q53 35.55 53 35.55Q53 35.55 53 35.55Q53 35.55 53 35.55Q53 35.55 53 35.02Q53 34.50 53 33.80Q53 33.10 53 32.58Q53 32.05 53 32.05L55 32.05Q55 33.27 55 34.76Q55 36.25 55 37.91Q55 39.58 55 41.36Q55 43.15 55 45Q55 45 55 45Q55 45 55 45Q55 45 55 45Q55 45 55 45Q55 45 55 45Q55 45 55 45Q55 45 55 45Q55 45 55 45Q55 45 53.92 45Q52.85 45 51.15 45Q49.45 45 47.53 45Q45.60 45 43.86 45Q42.13 45 40.99 45Q39.85 45 39.75 45Q39.75 45 39.75 45Q39.75 45 39.75 45Q39.75 45 39.75 45Q39.75 45 39.75 45Q39.75 45 39.75 45Q39.75 45 39.75 45Q39.75 45 39.75 45Q39.75 45 39.75 44.70Q39.75 44.40 39.75 44Q39.75 43.60 39.75 43.30Q39.75 43 39.75 43Q39.75 43 39.75 43Q39.75 43 39.75 43Q39.75 43 39.75 43Q39.75 42 39.75 41.01Q39.75 40.02 39.75 39.09Q39.75 38.15 39.75 37.30Q39.75 36.45 39.75 35.70Q39.75 34.95 39.75 34.35ZM53 31.05L55 31.05Q55 31.05 55 31.91Q55 32.77 55 34.14Q55 35.50 55 37.02Q55 38.55 55 39.91Q55 41.27 55 42.14Q55 43 55 43Q55 43 55 43Q55 43 55 43Q55 43 55 43Q55 43 55 43Q55 43 55 43Q55 43 55 43Q55 43 55 43Q55 43 55 43Q55 43 55 43Q55 43 55 43Q55 43 55 43Q55 43 55 43Q55 43 55 43Q55 43 55.91 43Q56.83 43 58.26 43Q59.70 43 61.30 43Q62.90 43 64.34 43Q65.78 43 66.69 43Q67.60 43 67.60 43Q67.60 43.48 67.60 43.99Q67.60 44.50 67.60 45Q67.60 45 67.60 45Q67.60 45 67.60 45Q67.60 45 67.60 45Q67.60 45 67.60 45Q67.60 45 67.60 45Q67.60 45 66.55 45Q65.50 45 63.84 45Q62.17 45 60.30 45Q58.42 45 56.76 45Q55.10 45 54.05 45Q53 45 53 45Q53 45 53 45Q53 45 53 45Q53 45 53 45Q53 45 53 45Q53 45 53 43.99Q53 42.98 53 41.39Q53 39.80 53 38.02Q53 36.25 53 34.66Q53 33.08 53 32.06Q53 31.05 53 31.05M81.50 31.05Q81.50 31.05 81.50 32.06Q81.50 33.08 81.50 34.66Q81.50 36.25 81.50 38.02Q81.50 39.80 81.50 41.39Q81.50 42.98 81.50 43.99Q81.50 45 81.50 45Q81.50 45 81.50 45Q81.50 45 81.50 45Q81.50 45 81.50 45Q81.50 45 81.50 45Q81.50 45 80.45 45Q79.40 45 77.74 45Q76.08 45 74.20 45Q72.33 45 70.66 45Q69 45 67.95 45Q66.90 45 66.90 45Q66.90 45 66.90 45Q66.90 45 66.90 45Q66.90 45 66.90 45Q66.90 45 66.90 45Q66.90 45 66.90 45Q66.90 44.50 66.90 43.99Q66.90 43.48 66.90 43Q66.90 43 67.81 43Q68.72 43 70.16 43Q71.60 43 73.20 43Q74.80 43 76.24 43Q77.67 43 78.59 43Q79.50 43 79.50 43Q79.50 43 79.50 43Q79.50 43 79.50 43Q79.50 43 79.50 43Q79.50 43 79.50 43Q79.50 43 79.50 43Q79.50 43 79.50 43Q79.50 43 79.50 43Q79.50 43 79.50 43Q79.50 43 79.50 43Q79.50 43 79.50 43Q79.50 43 79.50 43Q79.50 43 79.50 43Q79.50 43 79.50 43Q79.50 43 79.50 42.14Q79.50 41.27 79.50 39.91Q79.50 38.55 79.50 37.02Q79.50 35.50 79.50 34.14Q79.50 32.77 79.50 31.91Q79.50 31.05 79.50 31.05L81.50 31.05M53 29.65Q53 29.65 53 28.64Q53 27.63 53 26.04Q53 24.45 53 22.67Q53 20.90 53 19.31Q53 17.72 53 16.71Q53 15.70 53 15.70Q53 15.70 53 15.70Q53 15.70 53 15.70Q53 15.70 53 15.70Q53 15.70 53 15.70Q53 15.70 54.01 15.70Q55.02 15.70 56.63 15.70Q58.23 15.70 60.04 15.70Q61.85 15.70 63.51 15.70Q65.17 15.70 66.30 15.70Q67.42 15.70 67.60 15.70Q67.60 15.70 67.60 15.70Q67.60 15.70 67.60 15.70Q67.60 15.70 67.60 15.70Q67.60 15.70 67.60 15.70Q67.60 15.70 67.60 15.70Q67.60 16.17 67.60 16.69Q67.60 17.20 67.60 17.70Q67.60 17.70 66.74 17.70Q65.88 17.70 64.60 17.70Q63.33 17.70 62.05 17.70Q60.77 17.70 59.91 17.70Q59.05 17.70 59.05 17.70Q59.05 17.70 59.05 17.70Q59.05 17.70 59.05 17.70Q59.05 17.70 59.05 17.70Q58.98 17.70 58.55 18.07Q58.13 18.45 57.52 19.02Q56.92 19.60 56.35 20.19Q55.77 20.77 55.39 21.20Q55 21.63 55 21.70L55 29.65L53 29.65M81.50 29.65L79.50 29.65L79.50 21.70Q79.50 21.63 79.11 21.20Q78.72 20.77 78.15 20.19Q77.58 19.60 76.97 19.02Q76.38 18.45 75.95 18.07Q75.53 17.70 75.45 17.70Q75.45 17.70 75.45 17.70Q75.45 17.70 75.45 17.70Q75.45 17.70 75.45 17.70Q75.45 17.70 74.59 17.70Q73.72 17.70 72.45 17.70Q71.17 17.70 69.90 17.70Q68.63 17.70 67.76 17.70Q66.90 17.70 66.90 17.70Q66.90 17.20 66.90 16.69Q66.90 16.17 66.90 15.70Q66.90 15.70 66.90 15.70Q66.90 15.70 66.90 15.70Q66.90 15.70 66.90 15.70Q66.90 15.70 66.90 15.70Q66.90 15.70 66.90 15.70Q67.08 15.70 68.20 15.70Q69.33 15.70 70.99 15.70Q72.65 15.70 74.46 15.70Q76.28 15.70 77.88 15.70Q79.47 15.70 80.49 15.70Q81.50 15.70 81.50 15.70Q81.50 15.70 81.50 15.70Q81.50 15.70 81.50 15.70Q81.50 15.70 81.50 15.70Q81.50 15.70 81.50 15.70Q81.50 15.70 81.50 16.71Q81.50 17.72 81.50 19.31Q81.50 20.90 81.50 22.67Q81.50 24.45 81.50 26.04Q81.50 27.63 81.50 28.64Q81.50 29.65 81.50 29.65M66.30 31.27Q66.30 31.27 66.30 30.34Q66.30 29.40 66.30 28.18Q66.30 26.95 66.30 26.01Q66.30 25.07 66.30 25.07Q66.30 25.07 66.30 25.07Q66.30 25.07 66.30 25.07Q66.30 24.92 66.33 24.90Q66.35 24.88 66.50 24.88Q66.78 24.88 67.04 24.88Q67.30 24.88 67.56 24.88Q67.83 24.88 68.10 24.88Q68.25 24.88 68.28 24.90Q68.30 24.92 68.30 25.07Q68.30 25.07 68.30 25.07Q68.30 25.07 68.30 25.07Q68.30 25.07 68.30 26.01Q68.30 26.95 68.30 28.18Q68.30 29.40 68.30 30.34Q68.30 31.27 68.30 31.27Q68.30 31.27 68.30 31.27Q68.30 31.27 68.30 31.27Q68.30 31.27 68.30 31.27Q68.30 31.27 68.30 31.27Q68.30 31.27 68.30 31.27Q68.30 31.27 68.30 31.27Q68.30 31.27 68.30 31.27Q68.30 31.42 68.28 31.45Q68.25 31.48 68.10 31.48Q67.70 31.48 67.31 31.48Q66.92 31.48 66.50 31.48Q66.35 31.48 66.33 31.45Q66.30 31.42 66.30 31.27Q66.30 31.27 66.30 31.27Q66.30 31.27 66.30 31.27Q66.30 31.27 66.30 31.27Q66.30 31.27 66.30 31.27Q66.30 31.27 66.30 31.27Q66.30 31.27 66.30 31.27Q66.30 31.27 66.30 31.27M68.20 36.10Q68.30 36.10 68.34 36.11Q68.38 36.13 68.39 36.16Q68.40 36.20 68.40 36.30Q68.40 36.30 68.40 36.98Q68.40 37.65 68.40 38.65Q68.40 39.65 68.40 40.65Q68.40 41.65 68.40 42.33Q68.40 43 68.40 43Q68.40 43 68.40 43Q68.40 43 68.40 43Q68.40 43 68.40 43Q68.40 43 68.40 43Q68.40 43 68.40 43Q68.40 43.08 68.40 43.11Q68.40 43.15 68.38 43.17Q68.35 43.20 68.31 43.20Q68.28 43.20 68.20 43.20Q68.20 43.20 67.80 43.20Q67.40 43.20 67 43.20Q66.60 43.20 66.60 43.20Q66.53 43.20 66.49 43.20Q66.45 43.20 66.42 43.17Q66.40 43.15 66.40 43.11Q66.40 43.08 66.40 43Q66.40 43 66.40 43Q66.40 43 66.40 43Q66.40 43 66.40 43Q66.40 43 66.40 43Q66.40 43 66.40 43Q66.40 43 66.40 42.33Q66.40 41.65 66.40 40.65Q66.40 39.65 66.40 38.65Q66.40 37.65 66.40 36.98Q66.40 36.30 66.40 36.30Q66.40 36.20 66.41 36.16Q66.42 36.13 66.46 36.11Q66.50 36.10 66.60 36.10Q66.60 36.10 67 36.10Q67.40 36.10 67.80 36.10Q68.20 36.10 68.20 36.10M81.50 35.60L79.50 35.60Q79.50 35.60 79.50 34.81Q79.50 34.02 79.50 32.98Q79.50 31.92 79.50 31.14Q79.50 30.35 79.50 30.35Q79.50 30.35 79.50 30.35Q79.50 30.35 79.50 30.35Q79.50 30.35 79.50 30.35Q79.50 30.35 79.50 30.35Q79.50 30.35 79.50 29.56Q79.50 28.77 79.50 27.72Q79.50 26.68 79.50 25.89Q79.50 25.10 79.50 25.10L81.50 25.10L81.50 35.60M53 35.60L53 25.10L55 25.10Q55 25.10 55 25.89Q55 26.68 55 27.72Q55 28.77 55 29.56Q55 30.35 55 30.35Q55 30.35 55 30.35Q55 30.35 55 30.35Q55 30.35 55 30.35Q55 30.35 55 30.35Q55 30.35 55 31.14Q55 31.92 55 32.98Q55 34.02 55 34.81Q55 35.60 55 35.60L53 35.60ZM95.05 32.55Q95.05 33.58 95.05 34.79Q95.05 36 95.05 37.31Q95.05 38.63 95.05 39.96Q95.05 41.30 95.05 42.58Q95.05 43.85 95.05 45Q95.05 45 94.26 45Q93.47 45 92.31 45Q91.15 45 89.99 45Q88.83 45 88.04 45Q87.25 45 87.25 45Q87.25 45 87.25 45Q87.25 45 87.25 45Q87.25 45 87.25 45Q87.25 45 87.25 45Q87.08 44.63 87.08 44Q87.08 43.38 87.25 43Q87.78 43 88.42 43Q89.08 43 89.81 43Q90.55 43 91.38 43Q92.20 43 93.05 43Q93.05 43 93.05 43Q93.05 43 93.05 43Q93.05 43 93.05 43Q93.05 43 93.05 43Q93.05 43 93.05 43Q93.05 43 93.05 43Q93.05 43 93.05 43Q93.05 43 93.05 43Q93.05 43 93.05 41.95Q93.05 40.90 93.05 39.34Q93.05 37.77 93.05 36.21Q93.05 34.65 93.05 33.60Q93.05 32.55 93.05 32.55L95.05 32.55M79.50 32.55L81.50 32.55Q81.50 32.55 81.50 33.60Q81.50 34.65 81.50 36.21Q81.50 37.77 81.50 39.34Q81.50 40.90 81.50 41.95Q81.50 43 81.50 43Q81.50 43 81.50 43Q81.50 43 81.50 43Q81.50 43 81.50 43Q81.50 43 81.50 43Q81.50 43 81.50 43Q81.50 43 81.50 43Q81.50 43 81.50 43Q81.50 43 81.50 43Q82.38 43 83.19 43Q84 43 84.74 43Q85.47 43 86.13 43Q86.78 43 87.30 43Q87.50 43.38 87.50 44Q87.50 44.63 87.30 45Q87.30 45 87.30 45Q87.30 45 87.30 45Q87.30 45 87.30 45Q87.30 45 87.30 45Q87.30 45 86.51 45Q85.72 45 84.56 45Q83.40 45 82.24 45Q81.08 45 80.29 45Q79.50 45 79.50 45Q79.50 43.85 79.50 42.58Q79.50 41.30 79.50 39.96Q79.50 38.63 79.50 37.31Q79.50 36 79.50 34.79Q79.50 33.58 79.50 32.55M95.05 35.60L93.05 35.60Q93.05 35.60 93.05 34.81Q93.05 34.02 93.05 32.98Q93.05 31.92 93.05 31.14Q93.05 30.35 93.05 30.35Q93.05 30.35 93.05 30.35Q93.05 30.35 93.05 30.35Q93.05 30.35 93.05 30.35Q93.05 30.35 93.05 30.35Q93.05 30.35 93.05 29.56Q93.05 28.77 93.05 27.72Q93.05 26.68 93.05 25.89Q93.05 25.10 93.05 25.10L95.05 25.10L95.05 35.60M79.50 35.60L79.50 25.10L81.50 25.10Q81.50 25.10 81.50 25.89Q81.50 26.68 81.50 27.72Q81.50 28.77 81.50 29.56Q81.50 30.35 81.50 30.35Q81.50 30.35 81.50 30.35Q81.50 30.35 81.50 30.35Q81.50 30.35 81.50 30.35Q81.50 30.35 81.50 30.35Q81.50 30.35 81.50 31.14Q81.50 31.92 81.50 32.98Q81.50 34.02 81.50 34.81Q81.50 35.60 81.50 35.60L79.50 35.60M95.05 28.15L93.05 28.15Q93.05 28.15 93.05 27.10Q93.05 26.05 93.05 24.49Q93.05 22.92 93.05 21.36Q93.05 19.80 93.05 18.75Q93.05 17.70 93.05 17.70Q93.05 17.70 93.05 17.70Q93.05 17.70 93.05 17.70Q93.05 17.70 93.05 17.70Q93.05 17.70 93.05 17.70Q93.05 17.70 93.05 17.70Q93.05 17.70 93.05 17.70Q93.05 17.70 93.05 17.70Q93.05 17.70 93.05 17.70Q92.20 17.70 91.38 17.70Q90.55 17.70 89.81 17.70Q89.08 17.70 88.42 17.70Q87.78 17.70 87.25 17.70Q87.08 17.32 87.08 16.70Q87.08 16.07 87.25 15.70Q87.25 15.70 87.25 15.70Q87.25 15.70 87.25 15.70Q87.25 15.70 87.25 15.70Q87.25 15.70 87.25 15.70Q87.25 15.70 88.04 15.70Q88.83 15.70 89.99 15.70Q91.15 15.70 92.31 15.70Q93.47 15.70 94.26 15.70Q95.05 15.70 95.05 15.70Q95.05 16.85 95.05 18.13Q95.05 19.40 95.05 20.74Q95.05 22.07 95.05 23.39Q95.05 24.70 95.05 25.91Q95.05 27.13 95.05 28.15M79.50 28.15Q79.50 27.13 79.50 25.91Q79.50 24.70 79.50 23.39Q79.50 22.07 79.50 20.74Q79.50 19.40 79.50 18.13Q79.50 16.85 79.50 15.70Q79.50 15.70 80.29 15.70Q81.08 15.70 82.24 15.70Q83.40 15.70 84.56 15.70Q85.72 15.70 86.51 15.70Q87.30 15.70 87.30 15.70Q87.30 15.70 87.30 15.70Q87.30 15.70 87.30 15.70Q87.30 15.70 87.30 15.70Q87.30 15.70 87.30 15.70Q87.50 16.07 87.50 16.70Q87.50 17.32 87.30 17.70Q86.78 17.70 86.13 17.70Q85.47 17.70 84.74 17.70Q84 17.70 83.19 17.70Q82.38 17.70 81.50 17.70Q81.50 17.70 81.50 17.70Q81.50 17.70 81.50 17.70Q81.50 17.70 81.50 17.70Q81.50 17.70 81.50 17.70Q81.50 17.70 81.50 17.70Q81.50 17.70 81.50 17.70Q81.50 17.70 81.50 17.70Q81.50 17.70 81.50 17.70Q81.50 17.70 81.50 18.75Q81.50 19.80 81.50 21.36Q81.50 22.92 81.50 24.49Q81.50 26.05 81.50 27.10Q81.50 28.15 81.50 28.15L79.50 28.15ZM126.55 35.60L124.55 35.60Q124.55 35.60 124.55 34.81Q124.55 34.02 124.55 32.98Q124.55 31.92 124.55 31.14Q124.55 30.35 124.55 30.35Q124.55 30.35 124.55 30.35Q124.55 30.35 124.55 30.35Q124.55 30.35 124.55 30.35Q124.55 30.35 124.55 30.35Q124.55 30.35 124.55 29.56Q124.55 28.77 124.55 27.72Q124.55 26.68 124.55 25.89Q124.55 25.10 124.55 25.10L126.55 25.10L126.55 35.60M93.05 35.60L93.05 25.10L95.05 25.10Q95.05 25.10 95.05 25.89Q95.05 26.68 95.05 27.72Q95.05 28.77 95.05 29.56Q95.05 30.35 95.05 30.35Q95.05 30.35 95.05 30.35Q95.05 30.35 95.05 30.35Q95.05 30.35 95.05 30.35Q95.05 30.35 95.05 30.35Q95.05 30.35 95.05 31.14Q95.05 31.92 95.05 32.98Q95.05 34.02 95.05 34.81Q95.05 35.60 95.05 35.60L93.05 35.60M109.80 15.70Q109.85 16.30 109.89 16.94Q109.92 17.57 109.94 18.24Q109.95 18.90 109.95 19.56Q109.95 20.22 109.91 20.86Q109.88 21.50 109.80 22.10Q109.80 22.10 109.65 22.10Q109.50 22.10 109.50 22.10Q109.50 22.10 109.20 21.65Q108.90 21.20 108.45 20.55Q108 19.90 107.55 19.25Q107.10 18.60 106.80 18.15Q106.50 17.70 106.50 17.70Q106.50 17.70 106.50 17.70Q106.50 17.70 106.50 17.70Q106.50 17.70 106.50 17.70Q104.38 17.70 102.34 17.70Q100.30 17.70 98.65 17.70Q97 17.70 96.02 17.70Q95.05 17.70 95.05 17.70Q95.05 17.70 95.05 17.70Q95.05 17.70 95.05 17.70Q95.05 17.70 95.05 17.70Q95.05 17.70 95.05 17.70Q95.05 17.70 95.05 17.70Q95.05 17.70 95.05 17.70Q95.05 17.70 95.05 17.70Q95.05 17.70 95.05 17.70Q95.05 17.70 95.05 17.81Q95.05 17.92 95.05 18.47Q95.05 19.02 95.05 20.27Q95.05 21.52 95.05 23.80Q95.05 26.07 95.05 29.65L93.05 29.65Q93.05 28.72 93.05 27.63Q93.05 26.52 93.05 25.31Q93.05 24.10 93.05 22.84Q93.05 21.57 93.05 20.34Q93.05 19.10 93.05 17.91Q93.05 16.72 93.05 15.70Q93.05 15.70 93.05 15.70Q93.05 15.70 93.05 15.70Q93.05 15.70 94.26 15.70Q95.47 15.70 97.38 15.70Q99.27 15.70 101.42 15.70Q103.58 15.70 105.47 15.70Q107.38 15.70 108.59 15.70Q109.80 15.70 109.80 15.70Q109.80 15.70 109.80 15.70Q109.80 15.70 109.80 15.70Q109.80 15.70 109.80 15.70Q109.80 15.70 109.80 15.70Q109.80 15.70 109.80 15.70Q109.80 15.70 109.80 15.70Q109.80 15.70 109.80 15.70Q109.80 15.70 109.80 15.70M93.05 30.55L95.05 30.55Q95.05 30.55 95.05 31.81Q95.05 33.08 95.05 34.92Q95.05 36.77 95.05 38.63Q95.05 40.48 95.05 41.74Q95.05 43 95.05 43Q95.05 43 95.05 43Q95.05 43 95.05 43Q95.05 43 95.05 43Q95.05 43 95.05 43Q95.05 43 95.05 43Q95.05 43 95.05 43Q95.05 43 95.05 43Q95.05 43 95.05 43Q95.05 43 95.05 43Q95.05 43 95.05 43Q95.05 43 96.15 43Q97.25 43 98.99 43Q100.72 43 102.67 43Q104.63 43 106.36 43Q108.10 43 109.20 43Q110.30 43 110.30 43Q110.30 43 110.30 43Q110.30 43 110.30 43Q110.30 43.55 110.30 43.99Q110.30 44.42 110.30 45Q110.30 45 110.30 45Q110.30 45 110.30 45Q110.30 45 110.30 45Q110.30 45 110.30 45Q110.30 45 110.30 45Q110.30 45 110.30 45Q110.30 45 110.30 45Q110.20 45 108.90 45Q107.60 45 105.64 45Q103.67 45 101.50 45Q99.33 45 97.40 45Q95.47 45 94.26 45Q93.05 45 93.05 45Q93.05 45 93.05 45Q93.05 45 93.05 45Q93.05 45 93.05 45Q93.05 45 93.05 43.96Q93.05 42.92 93.05 41.27Q93.05 39.63 93.05 37.77Q93.05 35.92 93.05 34.27Q93.05 32.63 93.05 31.59Q93.05 30.55 93.05 30.55M126.55 30.55Q126.55 30.55 126.55 31.59Q126.55 32.63 126.55 34.27Q126.55 35.92 126.55 37.77Q126.55 39.63 126.55 41.27Q126.55 42.92 126.55 43.96Q126.55 45 126.55 45Q126.55 45 126.55 45Q126.55 45 126.55 45Q126.55 45 126.55 45Q126.55 45 125.34 45Q124.13 45 122.20 45Q120.28 45 118.10 45Q115.92 45 113.96 45Q112 45 110.71 45Q109.42 45 109.30 45Q109.30 45 109.30 45Q109.30 45 109.30 45Q109.30 45 109.30 45Q109.30 45 109.30 45Q109.30 45 109.30 45Q109.30 45 109.30 45Q109.30 45 109.30 45Q109.30 44.42 109.30 43.99Q109.30 43.55 109.30 43Q109.30 43 109.30 43Q109.30 43 109.30 43Q109.30 43 110.40 43Q111.50 43 113.24 43Q114.97 43 116.92 43Q118.88 43 120.61 43Q122.35 43 123.45 43Q124.55 43 124.55 43Q124.55 43 124.55 43Q124.55 43 124.55 43Q124.55 43 124.55 43Q124.55 43 124.55 43Q124.55 43 124.55 43Q124.55 43 124.55 43Q124.55 43 124.55 43Q124.55 43 124.55 43Q124.55 43 124.55 43Q124.55 43 124.55 43Q124.55 43 124.55 41.74Q124.55 40.48 124.55 38.63Q124.55 36.77 124.55 34.92Q124.55 33.08 124.55 31.81Q124.55 30.55 124.55 30.55L126.55 30.55M109.80 15.70Q109.80 15.70 109.80 15.70Q109.80 15.70 109.80 15.70Q109.80 15.70 109.80 15.70Q109.80 15.70 109.80 15.70Q109.80 15.70 109.80 15.70Q109.80 15.70 109.80 15.70Q109.80 15.70 109.80 15.70Q109.80 15.70 109.80 15.70Q109.80 15.70 111.01 15.70Q112.22 15.70 114.13 15.70Q116.03 15.70 118.17 15.70Q120.33 15.70 122.22 15.70Q124.13 15.70 125.34 15.70Q126.55 15.70 126.55 15.70Q126.55 15.70 126.55 15.70Q126.55 15.70 126.55 15.70Q126.55 16.72 126.55 17.91Q126.55 19.10 126.55 20.34Q126.55 21.57 126.55 22.84Q126.55 24.10 126.55 25.31Q126.55 26.52 126.55 27.63Q126.55 28.72 126.55 29.65L124.55 29.65Q124.55 26.07 124.55 23.80Q124.55 21.52 124.55 20.27Q124.55 19.02 124.55 18.47Q124.55 17.92 124.55 17.81Q124.55 17.70 124.55 17.70Q124.55 17.70 124.55 17.70Q124.55 17.70 124.55 17.70Q124.55 17.70 124.55 17.70Q124.55 17.70 124.55 17.70Q124.55 17.70 124.55 17.70Q124.55 17.70 124.55 17.70Q124.55 17.70 124.55 17.70Q124.55 17.70 124.55 17.70Q124.55 17.70 123.58 17.70Q122.60 17.70 120.95 17.70Q119.30 17.70 117.26 17.70Q115.22 17.70 113.10 17.70Q113.10 17.70 113.10 17.70Q113.10 17.70 113.10 17.70Q113.10 17.70 113.10 17.70Q113.10 17.70 112.80 18.15Q112.50 18.60 112.05 19.25Q111.60 19.90 111.15 20.55Q110.70 21.20 110.40 21.65Q110.10 22.10 110.10 22.10Q110.10 22.10 109.95 22.10Q109.80 22.10 109.80 22.10Q109.72 21.50 109.69 20.86Q109.65 20.22 109.65 19.56Q109.65 18.90 109.66 18.24Q109.67 17.57 109.71 16.94Q109.75 16.30 109.80 15.70M107.40 43Q107.40 43 107.40 43Q107.40 43 107.40 43Q107.40 43 107.40 43Q107.40 43 107.40 43Q107.40 43 107.40 43Q107.40 43 107.40 43Q107.40 43 107.40 43Q107.40 43 107.40 43Q107.40 43 107.22 43.23Q107.05 43.45 106.88 43.67Q106.70 43.90 106.70 43.90Q106.70 43.90 106.70 43.90Q106.70 43.90 106.70 43.90Q106.70 43.90 106.70 43.90Q106.70 43.90 106.39 43.67Q106.08 43.45 105.76 43.23Q105.45 43 105.45 43Q105.45 43 105.45 43Q105.45 43 105.45 43Q105.45 43 105.45 43Q105.45 43 105.45 43Q105.45 43 105.45 43Q105.45 43 105.45 43Q105.45 43 105.45 43Q105.45 43 105.26 42.13Q105.08 41.25 104.78 39.86Q104.47 38.48 104.13 36.92Q103.78 35.38 103.47 33.99Q103.17 32.60 102.99 31.73Q102.80 30.85 102.80 30.85Q102.80 30.85 102.80 30.85Q102.80 30.85 102.80 30.85Q102.80 30.85 102.80 30.85Q102.80 30.85 103.26 30.74Q103.72 30.63 104.19 30.51Q104.65 30.40 104.65 30.40Q104.65 30.40 104.65 30.40Q104.65 30.40 104.65 30.40Q104.65 30.40 104.65 30.40Q104.65 30.40 104.65 30.40Q104.65 30.40 104.65 30.40Q104.65 30.40 104.65 30.40Q104.65 30.40 104.85 31.31Q105.05 32.23 105.36 33.66Q105.67 35.10 106.03 36.70Q106.38 38.30 106.69 39.74Q107 41.17 107.20 42.09Q107.40 43 107.40 43M112.25 43Q112.25 43 112.45 42.09Q112.65 41.17 112.96 39.74Q113.28 38.30 113.63 36.70Q113.97 35.10 114.29 33.66Q114.60 32.23 114.80 31.31Q115 30.40 115 30.40Q115 30.40 115 30.40Q115 30.40 115 30.40Q115 30.40 115 30.40Q115 30.40 115 30.40Q115 30.40 115 30.40Q115 30.40 115 30.40Q115 30.40 115.46 30.51Q115.92 30.63 116.39 30.74Q116.85 30.85 116.85 30.85Q116.85 30.85 116.85 30.85Q116.85 30.85 116.85 30.85Q116.85 30.85 116.85 30.85Q116.85 30.85 116.66 31.73Q116.47 32.60 116.17 33.99Q115.88 35.38 115.53 36.92Q115.17 38.48 114.88 39.86Q114.58 41.25 114.39 42.13Q114.20 43 114.20 43Q114.20 43 114.20 43Q114.20 43 114.20 43Q114.20 43 114.20 43Q114.20 43 114.20 43Q114.20 43 114.20 43Q114.20 43 114.20 43Q114.20 43 114.20 43Q114.20 43 113.89 43.23Q113.58 43.45 113.26 43.67Q112.95 43.90 112.95 43.90Q112.95 43.90 112.95 43.90Q112.95 43.90 112.95 43.90Q112.95 43.90 112.95 43.90Q112.95 43.90 112.78 43.67Q112.60 43.45 112.42 43.23Q112.25 43 112.25 43Q112.25 43 112.25 43Q112.25 43 112.25 43Q112.25 43 112.25 43Q112.25 43 112.25 43Q112.25 43 112.25 43Q112.25 43 112.25 43Q112.25 43 112.25 43Q112.25 43 112.25 43Z"/>
		</g>
	</g>
	<style>
		@media (prefers-color-scheme: dark) {
			svg {
			fill: #fff;
			stroke: #fff;
			}
		}
	</style>
</svg>
